<?xml version="1.0" encoding="UTF-8"?>
<svg width="128" height="128" version="1.1" viewBox="0 0 128 128" xmlns="http://www.w3.org/2000/svg">
 <rect width="128" height="128" rx="20" ry="20" fill="#4CAF50"/>
 <g fill="#fff" stroke-width="1.3333">
  <path d="m64 24c-22.091 0-40 17.909-40 40s17.909 40 40 40 40-17.909 40-40-17.909-40-40-40zm0 72c-17.673 0-32-14.327-32-32s14.327-32 32-32 32 14.327 32 32-14.327 32-32 32z"/>
  <path d="m80 60h-12v-12c0-2.2091-1.7909-4-4-4s-4 1.7909-4 4v12h-12c-2.2091 0-4 1.7909-4 4s1.7909 4 4 4h12v12c0 2.2091 1.7909 4 4 4s4-1.7909 4-4v-12h12c2.2091 0 4-1.7909 4-4s-1.7909-4-4-4z"/>
 </g>
</svg> 